<svg width="1400" height="2700" viewBox="0 0 1400 2700" xmlns="http://www.w3.org/2000/svg" font-family="'Segoe UI', Roboto, Helvetica, Arial, sans-serif">

  <defs>
    <linearGradient id="bgGrad" x1="0%" y1="0%" x2="0%" y2="100%">
      <stop offset="0%" style="stop-color:#0f172a;stop-opacity:1" />
      <stop offset="100%" style="stop-color:#1e293b;stop-opacity:1" />
    </linearGradient>

    <linearGradient id="screenFill" x1="0%" y1="0%" x2="0%" y2="100%">
      <stop offset="0%" style="stop-color:#172554;stop-opacity:0.8" />
      <stop offset="100%" style="stop-color:#1e3a8a;stop-opacity:0.4" />
    </linearGradient>

    <linearGradient id="mechCard" x1="0%" y1="0%" x2="0%" y2="100%">
      <stop offset="0%" style="stop-color:#1e293b;stop-opacity:1" />
      <stop offset="100%" style="stop-color:#0f172a;stop-opacity:1" />
    </linearGradient>

    <linearGradient id="patchAGrad" x1="0%" y1="0%" x2="100%" y2="100%">
      <stop offset="0%" style="stop-color:#f59e0b;stop-opacity:0.3" />
      <stop offset="100%" style="stop-color:#b45309;stop-opacity:0.1" />
    </linearGradient>

    <linearGradient id="patchBGrad" x1="0%" y1="0%" x2="100%" y2="100%">
      <stop offset="0%" style="stop-color:#d946ef;stop-opacity:0.3" />
      <stop offset="100%" style="stop-color:#701a75;stop-opacity:0.1" />
    </linearGradient>

    <filter id="glow" x="-20%" y="-20%" width="140%" height="140%">
      <feGaussianBlur stdDeviation="2" result="coloredBlur"/>
      <feMerge>
        <feMergeNode in="coloredBlur"/>
        <feMergeNode in="SourceGraphic"/>
      </feMerge>
    </filter>

    <filter id="shadow" x="-20%" y="-20%" width="140%" height="140%">
      <feGaussianBlur in="SourceAlpha" stdDeviation="4"/>
      <feOffset dx="4" dy="4" result="offsetblur"/>
      <feComponentTransfer><feFuncA type="linear" slope="0.5"/></feComponentTransfer>
      <feMerge><feMergeNode/><feMergeNode in="SourceGraphic"/></feMerge>
    </filter>

    <marker id="arrow" markerWidth="14" markerHeight="14" refX="10" refY="4" orient="auto" markerUnits="strokeWidth">
      <path d="M0,0 L0,8 L12,4 z" fill="#94a3b8" />
    </marker>

    <pattern id="grid" width="60" height="60" patternUnits="userSpaceOnUse">
      <path d="M 60 0 L 0 0 0 60" fill="none" stroke="#38bdf8" stroke-width="1" stroke-opacity="0.15"/>
    </pattern>
  </defs>

  <rect width="100%" height="100%" fill="url(#bgGrad)"/>

  <text x="700" y="80" text-anchor="middle" font-size="60" font-weight="900" fill="#f8fafc" letter-spacing="2">OBSERVER-PATCH HOLOGRAPHY</text>
  <text x="700" y="140" text-anchor="middle" font-size="30" fill="#94a3b8">From Microscopic Screen to Emergent Spacetime</text>

  <g id="Level1" transform="translate(100, 200)">
    <rect width="1200" height="480" rx="20" fill="url(#screenFill)" stroke="#38bdf8" stroke-width="3" filter="url(#shadow)"/>
    <rect width="1200" height="480" rx="20" fill="url(#grid)"/>

    <rect x="300" y="20" width="600" height="60" rx="10" fill="#172554" stroke="#60a5fa" stroke-width="2"/>
    <text x="600" y="60" text-anchor="middle" font-size="32" font-weight="bold" fill="#ffffff">LEVEL 1: THE HORIZON SCREEN (S²)</text>
    
    <text x="600" y="110" text-anchor="middle" font-size="24" fill="#bfdbfe" font-style="italic">The fundamental substrate. Finite capacity. No 3D space yet.</text>

    <g transform="translate(100, 180)">
      <circle cx="80" cy="80" r="70" fill="#0f172a" stroke="#fbbf24" stroke-width="5"/>
      <text x="80" y="90" text-anchor="middle" font-size="32" font-weight="bold" fill="#fbbf24">PIXEL</text>
      
      <line x1="160" y1="80" x2="240" y2="80" stroke="#fbbf24" stroke-width="3" stroke-dasharray="8,8"/>
      
      <text x="200" y="60" font-size="24" font-weight="bold" fill="#ffffff">Fundamental Area (a_cell)</text>
      <text x="200" y="95" font-size="22" fill="#cbd5e1">a_cell ≈ 1.63 ℓ_P²</text>
      <text x="200" y="130" font-size="22" fill="#fcd34d">Determines G &amp; Masses</text>
    </g>

    <g transform="translate(700, 180)">
      <rect x="0" y="10" width="420" height="150" rx="15" fill="#0f172a" stroke="#2dd4bf" stroke-width="3"/>
      
      <text x="40" y="55" font-size="28" font-weight="bold" fill="#2dd4bf">TOTAL CAPACITY</text>
      <text x="40" y="95" font-size="24" fill="#cbd5e1">log(dim H) ~ 10¹²² bits</text>
      <text x="40" y="135" font-size="24" fill="#5eead4">Determines Λ (Cosmo Const)</text>
    </g>
  </g>

  <line x1="700" y1="680" x2="700" y2="780" stroke="#64748b" stroke-width="6" marker-end="url(#arrow)"/>

  <g id="Level2" transform="translate(100, 800)">
    <rect width="1200" height="600" rx="30" fill="none" stroke="#475569" stroke-width="3" stroke-dasharray="15,15"/>
    
    <rect x="350" y="-30" width="500" height="60" rx="15" fill="#334155" stroke="#94a3b8" stroke-width="2"/>
    <text x="600" y="10" text-anchor="middle" font-size="32" font-weight="bold" fill="#ffffff">LEVEL 2: OBSERVER PATCHES</text>

    <g transform="translate(200, 120)">
      
      <circle cx="200" cy="200" r="220" fill="url(#patchAGrad)" stroke="#f59e0b" stroke-width="4"/>
      
      <circle cx="600" cy="200" r="220" fill="url(#patchBGrad)" stroke="#d946ef" stroke-width="4"/>
      
      <text x="140" y="180" text-anchor="middle" font-size="40" font-weight="bold" fill="#fbbf24">PATCH A</text>
      <text x="140" y="230" text-anchor="middle" font-size="28" fill="#fcd34d">Observer 1</text>
      <text x="140" y="270" text-anchor="middle" font-size="24" fill="#fef3c7" font-style="italic">Subjective View</text>

      <text x="660" y="180" text-anchor="middle" font-size="40" font-weight="bold" fill="#e879f9">PATCH B</text>
      <text x="660" y="230" text-anchor="middle" font-size="28" fill="#f0abfc">Observer 2</text>
      <text x="660" y="270" text-anchor="middle" font-size="24" fill="#fae8ff" font-style="italic">Subjective View</text>

      <path d="M 400 60 Q 520 200 400 340 Q 280 200 400 60 Z" fill="#22c55e" stroke="#4ade80" stroke-width="3" fill-opacity="0.3"/>
      
      <text x="400" y="150" text-anchor="middle" font-size="24" font-weight="bold" fill="#ffffff" filter="url(#glow)">CONSISTENCY</text>
      <text x="400" y="190" text-anchor="middle" font-size="22" font-weight="bold" fill="#86efac">ω₁ = ω₂</text>
      <text x="400" y="230" text-anchor="middle" font-size="20" fill="#ffffff">"Intersubjective"</text>
      <text x="400" y="255" text-anchor="middle" font-size="20" fill="#ffffff">Reality</text>
    </g>

    <text x="600" y="575" text-anchor="middle" font-size="24" font-style="italic" fill="#94a3b8">"There is no view from nowhere. Reality is the consistent overlap of views."</text>
  </g>

  <line x1="500" y1="1400" x2="350" y2="1480" stroke="#64748b" stroke-width="6" marker-end="url(#arrow)"/>
  <line x1="900" y1="1400" x2="1050" y2="1480" stroke="#64748b" stroke-width="6" marker-end="url(#arrow)"/>

  <g id="Level3" transform="translate(0, 1500)">
    
    <text x="700" y="0" text-anchor="middle" font-size="42" font-weight="bold" fill="#e2e8f0">LEVEL 3: EMERGENT DYNAMICS</text>

    <g transform="translate(50, 60)">
      <rect width="620" height="650" rx="20" fill="url(#mechCard)" stroke="#38bdf8" stroke-width="3"/>
      
      <text x="310" y="60" text-anchor="middle" font-size="32" font-weight="bold" fill="#38bdf8">MECHANISM A: GLUING</text>
      
      <rect x="40" y="90" width="540" height="120" rx="10" fill="#0f172a" stroke="#38bdf8" stroke-width="1"/>
      <text x="60" y="130" font-size="26" font-weight="bold" fill="#e0f2fe">1. Overlap Redundancy</text>
      <text x="60" y="165" font-size="22" fill="#cbd5e1">The description of the overlap</text>
      <text x="60" y="195" font-size="22" fill="#cbd5e1">is not unique (mathematically).</text>
      
      <line x1="310" y1="210" x2="310" y2="240" stroke="#38bdf8" stroke-width="3" marker-end="url(#arrow)"/>

      <rect x="40" y="240" width="540" height="120" rx="10" fill="#0f172a" stroke="#38bdf8" stroke-width="1"/>
      <text x="60" y="280" font-size="26" font-weight="bold" fill="#e0f2fe">2. Gauge Symmetry</text>
      <text x="60" y="315" font-size="22" fill="#cbd5e1">This redundancy naturally forms</text>
      <text x="60" y="345" font-size="22" fill="#cbd5e1">a local Groupoid structure.</text>

      <line x1="310" y1="360" x2="310" y2="390" stroke="#38bdf8" stroke-width="3" marker-end="url(#arrow)"/>

      <rect x="40" y="390" width="540" height="200" rx="10" fill="#0c4a6e" stroke="#38bdf8" stroke-width="3"/>
      <text x="310" y="440" text-anchor="middle" font-size="30" font-weight="bold" fill="#ffffff">RESULT: FORCES</text>
      <text x="310" y="490" text-anchor="middle" font-size="24" fill="#e0f2fe">Gauge Symmetry forbids mass.</text>
      <text x="310" y="530" text-anchor="middle" font-size="24" fill="#7dd3fc" font-weight="bold">Forces Massless Photons</text>
      <text x="310" y="560" text-anchor="middle" font-size="24" fill="#7dd3fc" font-weight="bold">&amp; Gluons</text>
    </g>

    <g transform="translate(730, 60)">
      <rect width="620" height="650" rx="20" fill="url(#mechCard)" stroke="#fb923c" stroke-width="3"/>
      
      <text x="310" y="60" text-anchor="middle" font-size="32" font-weight="bold" fill="#fb923c">MECHANISM B: MAXENT</text>
      
      <rect x="40" y="90" width="540" height="120" rx="10" fill="#0f172a" stroke="#fb923c" stroke-width="1"/>
      <text x="60" y="130" font-size="26" font-weight="bold" fill="#ffedd5">1. Max Entropy Principle</text>
      <text x="60" y="165" font-size="22" fill="#cbd5e1">Patches maximize entropy subject</text>
      <text x="60" y="195" font-size="22" fill="#cbd5e1">to local operator constraints.</text>

      <line x1="310" y1="210" x2="310" y2="240" stroke="#fb923c" stroke-width="3" marker-end="url(#arrow)"/>

      <rect x="40" y="240" width="540" height="120" rx="10" fill="#0f172a" stroke="#fb923c" stroke-width="1"/>
      <text x="60" y="280" font-size="26" font-weight="bold" fill="#ffedd5">2. Entanglement Equilibrium</text>
      <text x="60" y="315" font-size="22" fill="#cbd5e1">Varying the state (δS = 0) yields</text>
      <text x="60" y="345" font-size="22" fill="#cbd5e1">thermodynamic relations.</text>

      <line x1="310" y1="360" x2="310" y2="390" stroke="#fb923c" stroke-width="3" marker-end="url(#arrow)"/>

      <rect x="40" y="390" width="540" height="200" rx="10" fill="#431407" stroke="#fb923c" stroke-width="3"/>
      <text x="310" y="440" text-anchor="middle" font-size="30" font-weight="bold" fill="#ffffff">RESULT: GRAVITY</text>
      <text x="310" y="490" text-anchor="middle" font-size="24" fill="#ffccbc">Equation of State: δQ = T dS</text>
      <text x="310" y="530" text-anchor="middle" font-size="24" fill="#fdba74" font-weight="bold">Yields Einstein Eqs:</text>
      <text x="310" y="560" text-anchor="middle" font-size="24" fill="#fdba74" font-weight="bold">G_ab + Λg_ab = 8πT_ab</text>
    </g>
  </g>

  <line x1="360" y1="2210" x2="600" y2="2280" stroke="#64748b" stroke-width="6" marker-end="url(#arrow)"/>
  <line x1="1040" y1="2210" x2="800" y2="2280" stroke="#64748b" stroke-width="6" marker-end="url(#arrow)"/>

  <g id="Level4" transform="translate(100, 2280)">
    <path d="M 100 0 L 1100 0 L 1200 240 L 0 240 Z" fill="url(#mechCard)" stroke="#38bdf8" stroke-width="2"/>
    
    <line x1="300" y1="0" x2="250" y2="240" stroke="#38bdf8" stroke-width="1" opacity="0.3"/>
    <line x1="500" y1="0" x2="480" y2="240" stroke="#38bdf8" stroke-width="1" opacity="0.3"/>
    <line x1="700" y1="0" x2="720" y2="240" stroke="#38bdf8" stroke-width="1" opacity="0.3"/>
    <line x1="900" y1="0" x2="950" y2="240" stroke="#38bdf8" stroke-width="1" opacity="0.3"/>
    
    <line x1="80" y1="80" x2="1120" y2="80" stroke="#38bdf8" stroke-width="1" opacity="0.3"/>
    <line x1="60" y1="160" x2="1140" y2="160" stroke="#38bdf8" stroke-width="1" opacity="0.3"/>

    <text x="600" y="80" text-anchor="middle" font-size="38" font-weight="bold" fill="#ffffff" filter="url(#glow)">LEVEL 4: EMERGENT 3+1D BULK</text>
    <text x="600" y="140" text-anchor="middle" font-size="28" fill="#e0f2fe">The "World Out There"</text>
    <text x="600" y="190" text-anchor="middle" font-size="24" fill="#94a3b8">A holographic compression of the entanglement between patches.</text>
  </g>

</svg>